<svg viewBox="3.6925675675675684 4.364000000000001 94.32432432432432 86.94" version="1.1" xmlns="http://www.w3.org/2000/svg" style="max-height: 500px" width="94.32432432432432" height="86.94">
 <path fill="#e5383b" d="m54.703 87.5c0.125 0.53906 0.28906 1.0625 0.50781 1.5625h-42.812c-0.85938 0-1.5625-0.70312-1.5625-1.5625v-14.117c0-11.172 9.0859-20.258 20.258-20.258h8.9375c-0.28906 0.50781-0.52344 1.0312-0.70312 1.5625-0.1875 0.51562-0.32031 1.0391-0.40625 1.5625-0.60938 3.3828 0.55469 6.9375 3.1641 9.2969v0.15625c-3.4766 3.1484-4.3828 8.4062-1.9766 12.57l2.5312 4.3828c0.76562 1.3281 1.8203 2.4453 3.0469 3.2812 1.0938 0.75781 2.3281 1.2891 3.6406 1.5625h4.1875c0.34375-0.070312 0.67188-0.16406 1-0.26562 0.046875 0.03125 0.09375 0.054687 0.14062 0.078125l0.046875 0.1875zm33.945-12.352-2.5234 4.3828c-0.71875 1.2422-2.0312 1.9453-3.375 1.9453-0.57031 0-1.1484-0.125-1.6875-0.39062l-1.6172-0.78906c-0.10156-0.046875-0.21094-0.070313-0.32031-0.070313-0.17188 0-0.34375 0.0625-0.49219 0.17188-1.3828 1.0859-2.9062 1.9609-4.5234 2.6172-0.28906 0.10938-0.47656 0.35938-0.49219 0.64844l-0.13281 1.7969c-0.14062 2.0156-1.8438 3.6016-3.8672 3.6016h-5.0625c-0.65625 0-1.2812-0.17188-1.8281-0.46875-0.5-0.26562-0.9375-0.64062-1.2734-1.0938-0.4375-0.57812-0.71094-1.2734-0.76562-2.0391l-0.13281-1.7969c-0.015626-0.28906-0.20313-0.53906-0.49219-0.64844h-0.007812c-1.6172-0.65625-3.125-1.5312-4.5078-2.6172-0.14844-0.11719-0.32812-0.17188-0.5-0.17188-0.10938 0-0.21094 0.023438-0.3125 0.070313l-1.625 0.78906c-0.53906 0.26562-1.1172 0.39062-1.6797 0.39062-1.3516 0-2.6641-0.70312-3.375-1.9375l-2.5312-4.3906c-1.0156-1.75-0.49219-4.0156 1.1875-5.1562l1.4922-1.0078c0.23438-0.15625 0.35938-0.4375 0.32031-0.72656-0.125-0.86719-0.1875-1.75-0.1875-2.6328s0.0625-1.7656 0.1875-2.6328c0.039062-0.28906-0.085938-0.57031-0.32031-0.72656l-1.4922-1.0078c-1.6328-1.1094-2.1719-3.2812-1.2656-5.0078 0.023438-0.046875 0.046876-0.10156 0.078126-0.14844l0.82031-1.4141 0.89844-1.5625 0.8125-1.4062c0.71094-1.2422 2.0234-1.9453 3.375-1.9453 0.5625 0 1.1406 0.125 1.6797 0.39062l1.625 0.78906c0.10156 0.046875 0.21094 0.070313 0.3125 0.070313 0.17188 0 0.35156-0.0625 0.5-0.17188 1.3828-1.0859 2.8984-1.9609 4.5156-2.6172 0.28906-0.10938 0.47656-0.35938 0.49219-0.64844l0.13281-1.7969c0.14062-2.0156 1.8438-3.6016 3.8672-3.6016h5.0625c2.0234 0 3.7266 1.5859 3.8672 3.6016l0.13281 1.7969c0.015624 0.28906 0.20312 0.53906 0.49219 0.64844 1.6172 0.65625 3.1406 1.5312 4.5234 2.6172 0.14844 0.10938 0.32031 0.17188 0.5 0.17188 0.10156 0 0.21094-0.023438 0.3125-0.070313l1.6172-0.78906c0.53906-0.26562 1.1172-0.39062 1.6875-0.39062 1.3438 0 2.6562 0.70312 3.375 1.9453l2.5234 4.3828c1.0156 1.75 0.49219 4.0156-1.1875 5.1562l-1.4922 1.0078c-0.23438 0.15625-0.35938 0.4375-0.32031 0.72656 0.125 0.86719 0.1875 1.75 0.1875 2.6328s-0.0625 1.7656-0.1875 2.6328c-0.039063 0.28906 0.085937 0.57031 0.32031 0.72656l1.4922 1.0078c1.6797 1.1406 2.2031 3.4062 1.1875 5.1562zm-13.992-9.5234c0-4.1719-3.3984-7.5703-7.5703-7.5703-1.4297 0-2.7656 0.39844-3.9062 1.0938-0.57813 0.34375-1.1016 0.76562-1.5625 1.25-0.66406 0.69531-1.1953 1.5156-1.5625 2.4219-0.34375 0.86719-0.53906 1.8125-0.53906 2.8047s0.19531 1.9375 0.53906 2.8047c0.36719 0.90625 0.89844 1.7266 1.5625 2.4219 0.46094 0.48438 0.98437 0.90625 1.5625 1.25 1.1406 0.69531 2.4766 1.0938 3.9062 1.0938 4.1719 0 7.5703-3.3984 7.5703-7.5703zm-31.008-20.312c9.4766 0 17.188-7.7109 17.188-17.188s-7.7109-17.188-17.188-17.188c-9.4766 0-17.188 7.7109-17.188 17.188s7.7109 17.188 17.188 17.188z"/>
<text fill="#e5383b" font-family="Arbeit Regular, Helvetica, Arial-Unicode, Arial, Sans-serif" font-weight="bold" font-size="5.0" y="117.5" x="0.0">Created by shashank singh</text><text fill="#e5383b" font-family="Arbeit Regular, Helvetica, Arial-Unicode, Arial, Sans-serif" font-weight="bold" font-size="5.0" y="122.5" x="0.0">from Noun Project</text></svg>