<svg viewBox="1.1621621621621623 8.306000000000001 99.45945945945947 89.10000000000001" version="1.1" xmlns="http://www.w3.org/2000/svg" style="max-height: 500px" width="99.45945945945947" height="89.10000000000001">
 <path fill="#a4161a" d="m92.5 48.484h-32c-1.9297 0-3.5 1.5703-3.5 3.5-0.003906 1.875 0.003906 33.109 0 34h-5.6797c1.2695-0.57812 2.5-1.2227 3.6797-1.9492v-10.578c-4.4766 1.0586-7.957-4.3438-4.9883-7.9883 1.2305-1.5391 3.1914-2.1719 4.9883-1.7695v-8.8711c-3.4023-2.3789-2.2539-8.043 1.8594-8.8906 1.293-0.30078 2.5664-0.039062 3.6406 0.55078 2.7578 0.003907 7.7383 0 10.441 0 1.207-19.125-14.27-35.57-33.441-35.5-18.469 0-33.5 15.031-33.5 33.5 0 1.8711 0.14844 3.7109 0.44922 5.5-0.30078 1.7891-0.44922 3.6289-0.44922 5.5-0.046875 19.043 16.031 34.289 35 33.5 10.055-0.003906 30.414 0.003907 40.5 0 9.0977 0 16.5-7.4023 16.5-16.5v-20.5c0-1.9297-1.5703-3.5-3.5-3.5zm-41.379-9.75c-3.0469 5.8555-11.703 1.707-9.0117-4.3398 3.0469-5.8672 11.684-1.707 9.0117 4.3398zm-13.621-24.75c15.73 0 28.711 11.961 30.328 27.27-11.984-25.57-48.688-25.555-60.66 0 1.6211-15.309 14.602-27.27 30.328-27.27zm-13.621 24.75c-2.6719-6.0469 5.9531-10.207 9.0117-4.3398 2.6953 6.0508-5.9648 10.195-9.0117 4.3398zm-11.73 10.961c1.6797-6.3945 11.027-4.2539 9.75 2.2305-1.6602 6.3945-11.02 4.2695-9.75-2.2305zm12.461 22.43c-3.8984 3.8125-10.277-0.50391-8.1094-5.5312 1.3516-3.4062 6.2695-4.0742 8.4883-1.1289 1.6094 2.0117 1.4102 4.8789-0.37891 6.6602zm12.891 9.3594c-6.6055-0.21094-6.6133-9.7891 0-10 6.6133 0.21484 6.6055 9.7891 0 10zm0-14.5c-6.3398 0-11.5-5.1602-11.5-11.5 0.63281-15.258 22.367-15.25 23 0 0 6.3398-5.1602 11.5-11.5 11.5zm27.5-11.027c-0.011719 1.9727-2.9219 2.0312-3 0.058594-0.015625-1.9844 2.9336-2.0195 3-0.058594zm-1.4414 3.5273c1.9961-0.007813 2.0117 2.9609 0.03125 3-1.9492-0.019531-1.9844-2.9375-0.03125-3zm0.089844 5c1.9766-0.007813 2.0234 2.9258 0.050781 3-1.9609-0.003906-2.0234-2.9453-0.050781-3zm0.089843 5c1.9805-0.007813 2.0234 2.9258 0.050781 3-1.9609-0.003906-2.0234-2.9453-0.050781-3zm0.089844 5c1.9805-0.007813 2.0234 2.9258 0.050781 3-1.9609-0.003906-2.0234-2.9453-0.050781-3zm0.14062 7.9922c-1.9648 0.015626-2.0312-2.9219-0.050781-3 1.9727 0.007813 2.0273 2.9375 0.050781 3zm19.531-2.9922c0 1.1055-0.89453 2-2 2h-10c-1.1055 0-2-0.89453-2-2v-6c0-1.1055 0.89453-2 2-2h10c1.1055 0 2 0.89453 2 2zm0-15.5c0 1.1055-0.89453 2-2 2h-10c-1.1055 0-2-0.89453-2-2v-6c0-1.1055 0.89453-2 2-2h10c1.1055 0 2 0.89453 2 2zm5.1211 18.422c-0.62891-0.1875-1.082-0.76562-1.0742-1.4531 0.011719-1.5938 2.2812-2.0273 2.875-0.57422-0.53125 0.73438-1.1367 1.4102-1.8047 2.0234zm0.5-4.9219c-1.9727-0.074219-1.9297-3.0078 0.050781-3 1.9727 0.054687 1.9102 2.9961-0.050781 3zm0.089844-5c-1.9727-0.074219-1.9297-3.0078 0.050781-3 1.9727 0.054687 1.9102 2.9961-0.050781 3zm0.089843-5c-1.9727-0.074219-1.9297-3.0078 0.050781-3 1.9727 0.054687 1.9141 2.9961-0.050781 3zm0.078125-5c-1.9609-0.078125-1.9141-3.0078 0.058594-3 1.9727 0.066406 1.9102 3.0156-0.058594 3zm-1.3789-6.5273c0.070312-1.957 3-1.9258 3 0.058594-0.078125 1.9727-3 1.9102-3-0.058594z"/>
<text fill="#a4161a" font-family="Arbeit Regular, Helvetica, Arial-Unicode, Arial, Sans-serif" font-weight="bold" font-size="5.0" y="117.5" x="0.0">Created by LUTFI GANI AL ACHMAD</text><text fill="#a4161a" font-family="Arbeit Regular, Helvetica, Arial-Unicode, Arial, Sans-serif" font-weight="bold" font-size="5.0" y="122.5" x="0.0">from Noun Project</text></svg>