<?xml version="1.0" encoding="UTF-8"?>
<svg width="1200pt" height="1200pt" version="1.1" viewBox="0 0 1200 1200" xmlns="http://www.w3.org/2000/svg">
 <path d="m1028.3 760.13-129.72-155.8c-0.46484 0.9375-0.85156 1.8984-1.418 2.793-4.1055 6.4414-10.477 10.898-17.934 12.547l-207.75 45.957h199.48c21.195 0 38.438 17.242 38.438 38.438v224.06h40.168c56.578 0 102.45-45.867 102.45-102.45 0-23.949-8.3906-47.145-23.715-65.551z" fill="#b9181a"/>
 <path d="m436.61 332.12c18.52 73.094 84.543 127.25 163.39 127.25 93.199 0 168.75-75.551 168.75-168.75s-75.551-168.75-168.75-168.75c-5.168 0-10.258 0.31641-15.309 0.77344-15.93-24.707-47.316-53.293-107.46-53.293-105.87 0-118.78 144.6-118.78 144.6s-10.711 95.41-108.71 99.566c-9.332 0.39453-17.977 5.0938-23.098 12.902l-0.28125 0.42578c-8.5039 12.969-5.4062 30.305 7.1836 39.219 18.719 13.254 51.047 28.629 100.3 28.629 41.102 0.007813 77.379-30.598 102.77-62.57zm158.54-191.25-0.77344 0.11328c-0.007813-0.023437-0.019532-0.046875-0.03125-0.070313 0.26953-0.011718 0.53516-0.035156 0.80469-0.042968zm4.8594 299.75c-70.309 0-129.3-48.688-145.47-114.07 99.504-1.0859 142.52-66.199 159.01-103.54 21.926 27.5 73.875 82.828 135.78 81.031-6.8164 76.438-71.137 136.58-149.32 136.58z" fill="#b9181a"/>
 <path d="m870.94 684.38h-372.05l376.27-83.016c2.7422-0.60547 4.9219-2.3242 6.2656-4.5547 1.3594-2.125 1.9102-4.7734 1.3203-7.4336l-1.2188-5.5078-12.816-57.867c-1.1758-5.3047-6.4297-8.6562-11.738-7.4805l-434.99 96.23c-2.7422 0.60547-4.9258 2.3242-6.2695 4.5547-1.3594 2.125-1.9102 4.7734-1.3203 7.4297l76.312 342.24c2.0117 9.0039 9.9961 15.406 19.219 15.406h361.02c10.875 0 19.688-8.8164 19.688-19.688v-36.562h-29.293c-27.203 0-53.277-10.871-72.426-30.195l-5.7773-5.8281c-15.215-15.359-23.754-36.105-23.754-57.727 0-10.355 8.3945-18.75 18.75-18.75h112.5v-111.56c0-10.875-8.8125-19.688-19.688-19.688zm-301.98-37.254c-1.1797 1.875-3.0547 3.207-5.2148 3.7031l-64.715 14.801-1.9102 0.4375c-1.8555 0.42188-3.5977 0.20703-5.1094-0.4375-4.3945-1.875-6.7734-7.457-3.8281-12.148l22.816-36.348c1.1797-1.875 3.0547-3.207 5.2148-3.7031l66.625-15.238c7.2539-1.6602 12.895 6.2812 8.9375 12.586zm274.72-108.14c4.4961-1.0273 8.9766 1.7852 10.008 6.2812l1.7656 7.7188 5 21.863c1.0273 4.5-1.7852 8.9766-6.2812 10.008l-71.711 16.398c-7.2539 1.6602-12.895-6.2812-8.9375-12.586l22.816-36.348c1.1797-1.875 3.0547-3.207 5.2148-3.7031l40.059-9.1602zm-109.55 39.879-22.816 36.348c-1.1758 1.875-3.0547 3.207-5.2109 3.7031l-66.629 15.238c-7.2539 1.6602-12.895-6.2812-8.9375-12.586l22.816-36.348c1.1758-1.875 3.0508-3.207 5.2109-3.7031l66.625-15.238c7.2578-1.6602 12.898 6.2812 8.9414 12.586zm-245.88 193.97c-8.7695 0-13.16-10.602-6.9609-16.805l35.758-35.758c1.8477-1.8477 4.3516-2.8828 6.9609-2.8828h70.691c8.7695 0 13.16 10.602 6.9609 16.805l-35.758 35.758c-1.8477 1.8477-4.3516 2.8828-6.9609 2.8828zm214.88 141.25c0 7.7539-6.2891 14.043-14.043 14.043h-150.04c-7.7539 0-14.043-6.2891-14.043-14.043v-0.039062c0-7.7539 6.2891-14.043 14.043-14.043h150.04c7.7539 0 14.043 6.2891 14.043 14.043zm-14.062-51.582h-178.12c-7.7656 0-14.062-6.2969-14.062-14.062s6.2969-14.062 14.062-14.062h178.12c7.7656 0 14.062 6.2969 14.062 14.062s-6.2969 14.062-14.062 14.062zm57.461-128.31-35.758 35.758c-1.8477 1.8477-4.3516 2.8828-6.9609 2.8828h-70.691c-8.7695 0-13.16-10.602-6.9609-16.805l35.758-35.758c1.8477-1.8477 4.3477-2.8828 6.9609-2.8828h70.691c8.7695 0 13.16 10.605 6.9609 16.805zm112.64 28.797c0 5.4375-4.4062 9.8438-9.8438 9.8438h-76.836c-8.7695 0-13.16-10.602-6.9609-16.805l35.758-35.758c1.8477-1.8477 4.3516-2.8828 6.9609-2.8828h41.078c5.4375 0 9.8438 4.4062 9.8438 9.8438z" fill="#b9181a"/>
 <path d="m473.31 977.46s-0.57812-2.9219-0.91016-4.4141l-55.965-251.01-0.13672 0.03125-4.0547-18.301-16.168-72.98c-1.6523-7.457-0.30078-15.113 3.8047-21.555 4.1055-6.4414 10.477-10.898 17.934-12.547l383.63-84.867c-27.688-14.363-58.699-22.168-90.637-22.168h-228.02c-60.867 0-118.32 28.156-155.61 76.266l-52.469 67.695c-43.707 56.387-51.625 132.69-20.43 196.85l88.562 182.16 0.42578-0.11328 29.438 65.055c16.609 36.703 52.914 59.008 91.438 59.008 9.7227 0 19.59-1.4219 29.316-4.3906 9.5352-2.9102 15.125-12.777 12.723-22.457zm-9.1602 140.35c-31.977 0-61.164-18.836-74.355-47.988l-21.164-46.77 90.227-26.027 29.137 117.21c-7.7695 2.3672-15.789 3.5703-23.844 3.5703z" fill="#b9181a"/>
</svg>
