<svg xmlns:xlink="http://www.w3.org/1999/xlink" xmlns="http://www.w3.org/2000/svg" xml:space="preserve" style="max-height: 500px" viewBox="6.38125 0.45 86.25 103" y="0px" x="0px" version="1.1" width="86.25" height="103"><switch fill="#b1a7a6"><g><g><path fill="#b1a7a6" d="M42.8,43.3c-1.5,0.5-2.8,1.6-3.5,3c-0.7,1.4-0.9,3.1-0.4,4.6c0.5,1.5,1.6,2.8,3,3.5c1.4,0.7,3.1,0.9,4.6,0.4l0.5-0.2     l-3.7-11.5L42.8,43.3z"/><path fill="#b1a7a6" d="M53.8,57.8l-0.5,0.2l3.7,11.5l0.5-0.2c3.2-1,4.9-4.5,3.9-7.6C60.4,58.5,57,56.7,53.8,57.8z"/><path fill="#b1a7a6" d="M86.5,74.1L68.8,19.5c-0.7-2.1-2.2-3.8-4.3-4.7L38.4,3.2c-3.6-1.6-7.9-0.2-9.9,3.2L14.1,31.1c-1.1,1.9-1.4,4.2-0.7,6.3     l17.8,54.7c1.3,4.1,5.7,6.3,9.8,5L81.5,84C85.6,82.6,87.9,78.2,86.5,74.1z M36.2,13.4c2.8-0.9,5.8,0.6,6.7,3.4     c0.9,2.8-0.6,5.8-3.4,6.7c-2.8,0.9-5.8-0.6-6.7-3.4C31.9,17.2,33.4,14.3,36.2,13.4z M59.1,74l-0.5,0.2l1.6,4.8     c0.4,1.3-0.3,2.7-1.6,3.1c-0.3,0.1-0.5,0.1-0.8,0.1c-1.1,0-2-0.7-2.4-1.7l-1.6-4.8l-0.5,0.2c-1.1,0.4-2.3,0.5-3.4,0.5     c-1.7,0-3.4-0.4-5-1.2c-2.6-1.3-4.6-3.6-5.5-6.4c-0.4-1.3,0.3-2.7,1.6-3.1c1.3-0.4,2.7,0.3,3.1,1.6c0.5,1.5,1.6,2.8,3,3.5     c1.4,0.7,3.1,0.9,4.6,0.4l0.5-0.2l-3.7-11.5l-0.5,0.2c-2.8,0.9-5.8,0.7-8.4-0.7c-2.6-1.3-4.6-3.6-5.5-6.4     c-0.9-2.8-0.7-5.8,0.7-8.4c1.3-2.6,3.6-4.6,6.4-5.5l0.5-0.2l-1.6-4.8c-0.4-1.3,0.3-2.7,1.6-3.1c1.3-0.4,2.7,0.3,3.1,1.6l1.6,4.8     l0.5-0.2c2.8-0.9,5.8-0.7,8.4,0.7c2.6,1.3,4.6,3.6,5.5,6.4c0.4,1.3-0.3,2.7-1.6,3.1c-1.3,0.4-2.7-0.3-3.1-1.6     c-0.5-1.5-1.6-2.8-3-3.5c-1.4-0.7-3.1-0.9-4.6-0.4L48,41.6l3.7,11.5l0.5-0.2c5.8-1.9,12,1.3,13.9,7.1     C68.1,65.9,64.9,72.1,59.1,74z"/></g></g></switch><text font-family="'Helvetica Neue', Helvetica, Arial-Unicode, Arial, Sans-serif" font-weight="bold" font-size="5px" fill="#b1a7a6" y="115" x="0">Created by Alice Design</text><text font-family="'Helvetica Neue', Helvetica, Arial-Unicode, Arial, Sans-serif" font-weight="bold" font-size="5px" fill="#b1a7a6" y="120" x="0">from the Noun Project</text></svg>