<svg y="0px" x="0px" viewBox="3.6735135135135133 -1.0431999999999997 59.329729729729735 67.0464" data-name="outline 2" xmlns="http://www.w3.org/2000/svg" style="max-height: 500px" width="59.329729729729735" height="67.0464"><g data-name="27-Report copy"><path fill="#b1a7a6" d="M54.74,13.33l-10-11A1,1,0,0,0,44,2H12A3,3,0,0,0,9,5V59a3,3,0,0,0,3,3H52a3,3,0,0,0,3-3V14A1,1,0,0,0,54.74,13.33ZM13,21a8,8,0,0,1,8-8,1,1,0,0,1,1,1v7h5.92a1,1,0,0,1,1,1.14A8,8,0,0,1,13,21ZM23,52a1,1,0,0,1-1,1H18a1,1,0,0,1-1-1V46a1,1,0,0,1,1-1h4a1,1,0,0,1,1,1Zm8,0a1,1,0,0,1-1,1H26a1,1,0,0,1-1-1V43a1,1,0,0,1,1-1h4a1,1,0,0,1,1,1Zm-.12-33.79a1,1,0,0,1-1,.79H25a1,1,0,0,1-1-1V12a1,1,0,0,1,1-1,6,6,0,0,1,6,6A5.77,5.77,0,0,1,30.88,18.21ZM39,52a1,1,0,0,1-1,1H34a1,1,0,0,1-1-1V39a1,1,0,0,1,1-1h4a1,1,0,0,1,1,1Zm8,0a1,1,0,0,1-1,1H42a1,1,0,0,1-1-1V35a1,1,0,0,1,1-1h4a1,1,0,0,1,1,1Zm2-24H35a1,1,0,0,1,0-2H49a1,1,0,0,1,0,2Zm0-4H35a1,1,0,0,1,0-2H49a1,1,0,0,1,0,2Zm0-4H35a1,1,0,0,1,0-2H49a1,1,0,0,1,0,2Zm-3-7a1,1,0,0,1-1-1V5.59L51.74,13Z"/></g><text fill="#b1a7a6" font-family="Arbeit Regular, Helvetica, Arial-Unicode, Arial, Sans-serif" font-weight="bold" font-size="3.2" y="75.2" x="0.0">Created by herra studio</text><text fill="#b1a7a6" font-family="Arbeit Regular, Helvetica, Arial-Unicode, Arial, Sans-serif" font-weight="bold" font-size="3.2" y="78.4" x="0.0">from Noun Project</text></svg>